<svg width="340" height="340" xmlns="http://www.w3.org/2000/svg" xmlns:svg="http://www.w3.org/2000/svg" preserveAspectRatio="xMidYMid meet" version="1.0">
 <g class="layer" display="inline">
  <title>Layer 1</title>
  <ellipse cx="169.5" cy="170.3" fill="#2c2e39" id="svg_17" rx="169.5" ry="168.5" stroke="#000000" stroke-width="0" transform="matrix(1 0 0 1 0 0)"/>
  <g class="icon-text-wrapper icon-svg-group iconsvg" fill="#2ea3ea" id="svg_5" transform="matrix(1.67616 0 0 1.26199 -20.2818 192.863)">
   <g class="iconsvg-imagesvg" id="svg_6" transform="translate(-7 -54) matrix(1.97769 0 0 3.23663 66.7631 -53.9804)">
    <g id="svg_7" transform="translate(-2 7)">
     <rect class="image-rect" fill="url(#svg_18)" fill-opacity="0" height="52.55" id="svg_8" stroke="url(#svg_20)" stroke-linecap="round" stroke-linejoin="round" stroke-width="0.3" transform="scale(3.1 2.90295)" width="60" x="100" y="100"/>
     <g id="svg_1">
      <svg class="image-svg-svg primary" fill="url(#svg_18)" height="52.55" id="svg_4" stroke="url(#svg_20)" stroke-linejoin="round" stroke-width="0.3" width="60" x="0" y="0">
       <g id="svg_9">
        <svg fill="url(#svg_18)" id="svg_13" stroke="url(#svg_20)" stroke-linejoin="round" stroke-width="0.3" transform="matrix(1 0 0 1 0 0)" viewBox="-0.0020438432693481445 -0.00044417381286621094 75.00151824951172 65.68547821044922" xmlns="http://www.w3.org/2000/svg">
         <path d="m11,0.17l8.7,0a3.43,3.43 0 0 1 3.42,1.93c3.51,6.1 7.11,12.15 10.7,18.21a3.14,3.14 0 0 1 0.08,3.5c-3,5.22 -6,10.47 -9.12,15.68c-0.39,0.68 -0.67,1.68 -1.68,1.64s-1.1,-1.13 -1.53,-1.8q-9.88,-17.11 -19.76,-34.23c-0.81,-1.34 -2.29,-2.88 -1.66,-4.2c0.73,-1.54 2.85,-0.62 4.35,-0.7c2.15,-0.12 4.31,-0.03 6.5,-0.03z" fill="url(#svg_18)" id="svg_16" stroke="url(#svg_20)" stroke-linecap="round" stroke-linejoin="round" stroke-width="0.3"/>
         <path d="m71.37,0.15l1.16,0c2.8,0 3,0.44 1.69,2.78l-14.53,25.2q-10.29,17.87 -20.59,35.77c-1.41,2.43 -1.9,2.3 -3.56,0.09c-2,-2.63 -1.71,-4.78 0,-7.6q15.73,-26.76 31.11,-53.77c1.26,-2.19 2.88,-2.77 4.72,-2.47zm-14.95,0.01l1.15,0c2.8,0 3,0.43 1.69,2.77l-6.96,12.07l-20.6,35.76c-1.53,2.65 -2.06,2.54 -3.75,-0.09a5.9,5.9 0 0 1 -0.16,-7q12,-20.07 23.53,-40.39c1.31,-2.28 2.75,-3.72 5.1,-3.12z" fill="url(#svg_18)" id="svg_15" stroke="url(#svg_20)" stroke-linecap="round" stroke-linejoin="round" stroke-width="0.3"/>
        </svg>
       </g>
      </svg>
     </g>
    </g>
   </g>
  </g>
 </g>
 <defs>
  <linearGradient id="svg_18">
   <stop id="jq_stop_8538" offset="0" stop-color="#409eff"/>
   <stop id="jq_stop_2968" offset="1" stop-color="#50a2e4" stop-opacity="1"/>
  </linearGradient>
  <linearGradient id="svg_20" x1="0" x2="1" y1="0" y2="0">
   <stop id="jq_stop_298" offset="0" stop-color="#409eff" stop-opacity="1"/>
   <stop id="jq_stop_7788" offset="1" stop-color="#2b3235" stop-opacity="1"/>
  </linearGradient>
 </defs>
</svg>
