<svg viewBox="0 0 330 120" xmlns="http://www.w3.org/2000/svg" xmlns:svg="http://www.w3.org/2000/svg"
    preserveAspectRatio="xMidYMid meet" version="1.0">
    <g class="layer" display="inline">
        <title>Layer 1</title>
        <g class="icon-text-wrapper icon-svg-group iconsvg" fill="#2ea3ea" id="svg_5"
            transform="translate(4 15) matrix(1.42906 0 0 1.43216 -7.867 12.9334)">
            <g class="iconsvg-imagesvg" id="svg_6"
                transform="translate(0 -5) matrix(1.18958 0 0 1.51739 8.6021 -22.9654)">
                <g id="svg_7" transform="translate(-2 7)">
                    <rect class="image-rect" fill="#2ea3ea" fill-opacity="0" height="52.55" id="svg_8"
                        stroke-width="2" transform="matrix(1 0 0 1 0 0)" width="60" x="0" y="0" />
                    <g id="svg_1">
                        <svg class="image-svg-svg primary" height="52.55" id="svg_35" width="60" x="0" y="0">
                            <g id="svg_39">
                                <svg id="svg_43"
                                    viewBox="-0.0020438432693481445 -0.00044417381286621094 75.00151824951172 65.68547821044922"
                                    xmlns="http://www.w3.org/2000/svg">
                                    <path
                                        d="m11,0.17l8.7,0a3.43,3.43 0 0 1 3.42,1.93c3.51,6.1 7.11,12.15 10.7,18.21a3.14,3.14 0 0 1 0.08,3.5c-3,5.22 -6,10.47 -9.12,15.68c-0.39,0.68 -0.67,1.68 -1.68,1.64s-1.1,-1.13 -1.53,-1.8q-9.88,-17.11 -19.76,-34.23c-0.81,-1.34 -2.29,-2.88 -1.66,-4.2c0.73,-1.54 2.85,-0.62 4.35,-0.7c2.15,-0.12 4.31,-0.03 6.5,-0.03z"
                                        fill="#2ea3ea" id="svg_45" />
                                    <path
                                        d="m71.37,0.15l1.16,0c2.8,0 3,0.44 1.69,2.78l-14.53,25.2q-10.29,17.87 -20.59,35.77c-1.41,2.43 -1.9,2.3 -3.56,0.09c-2,-2.63 -1.71,-4.78 0,-7.6q15.73,-26.76 31.11,-53.77c1.26,-2.19 2.88,-2.77 4.72,-2.47zm-14.95,0.01l1.15,0c2.8,0 3,0.43 1.69,2.77l-6.96,12.07l-20.6,35.76c-1.53,2.65 -2.06,2.54 -3.75,-0.09a5.9,5.9 0 0 1 -0.16,-7q12,-20.07 23.53,-40.39c1.31,-2.28 2.75,-3.72 5.1,-3.12z"
                                        fill="#2ea3ea" id="svg_44" />
                                </svg>
                            </g>
                        </svg>
                    </g>
                </g>
            </g>
            <g id="svg_24" transform="translate(280.098 62.9186) matrix(1.09324 0 0 1.68613 -224.357 -125.508)">
                <g class="tp-name iconsvg-namesvg" data-gra="path-name" id="svg_25">
                    <g id="svg_26" transform="translate(12 34) scale(1 1)">
                        <g id="svg_27">
                            <path
                                d="m11.63,-3.77l0,0q1.35,0 2.47,-0.25q1.11,-0.26 1.62,-0.63l0,0l0,-5.17l-4.51,0.42q-1.86,0.19 -2.84,0.82q-0.97,0.62 -0.97,1.97l0,0q0,1.35 1,2.1q1,0.74 3.23,0.74zm-0.19,-18.93l0,0q4.56,0 7.29,1.95q2.72,1.95 2.72,6.05l0,0l0,10.75q0,1.11 -0.56,1.76q-0.56,0.65 -1.4,1.17l0,0q-1.3,0.79 -3.3,1.25q-2,0.47 -4.56,0.47l0,0q-4.65,0 -7.33,-1.79q-2.67,-1.79 -2.67,-5.38l0,0q0,-3.11 1.98,-4.77q1.97,-1.65 5.74,-2.02l0,0l6.37,-0.65l0,-0.84q0,-1.77 -1.27,-2.6q-1.28,-0.84 -3.61,-0.84l0,0q-1.81,0 -3.54,0.44q-1.72,0.44 -3.07,1.09l0,0q-0.51,-0.37 -0.86,-1q-0.35,-0.62 -0.35,-1.37l0,0q0,-0.93 0.45,-1.51q0.44,-0.58 1.41,-1.05l0,0q1.35,-0.56 3.08,-0.83q1.72,-0.28 3.48,-0.28zm21.68,6l0,16.65q-0.41,0.1 -1.11,0.24q-0.7,0.14 -1.58,0.14l0,0q-1.63,0 -2.42,-0.61q-0.79,-0.6 -0.79,-2.14l0,0l0,-14.75q0,-1.21 0.55,-2.04q0.56,-0.84 1.63,-1.49l0,0q1.45,-0.89 3.56,-1.45q2.12,-0.55 4.58,-0.55l0,0q4.42,0 4.42,2.74l0,0q0,0.65 -0.21,1.23q-0.2,0.59 -0.44,0.96l0,0q-1.07,-0.23 -2.65,-0.23l0,0q-1.63,0 -3.07,0.37q-1.44,0.37 -2.47,0.93l0,0zm23.27,-1.3l0,0q-1.4,0 -2.59,0.46q-1.18,0.47 -2.04,1.35q-0.86,0.88 -1.37,2.19q-0.52,1.3 -0.52,3.02l0,0q0,3.44 1.82,5.19q1.81,1.74 4.7,1.74l0,0q1.62,0 2.81,-0.44q1.19,-0.44 2.12,-0.95l0,0q0.65,0.46 1.04,1.07q0.4,0.6 0.4,1.39l0,0q0,1.58 -1.86,2.61q-1.86,1.02 -5.03,1.02l0,0q-2.65,0 -4.86,-0.72q-2.21,-0.72 -3.79,-2.19q-1.58,-1.46 -2.44,-3.65q-0.86,-2.19 -0.86,-5.07l0,0q0,-2.93 0.93,-5.14q0.93,-2.21 2.53,-3.68q1.61,-1.46 3.75,-2.18q2.14,-0.72 4.56,-0.72l0,0q3.12,0 4.98,1.09q1.86,1.09 1.86,2.67l0,0q0,0.75 -0.4,1.35q-0.39,0.61 -0.9,0.98l0,0q-0.94,-0.51 -2.08,-0.95q-1.14,-0.44 -2.76,-0.44zm17.12,17.95l0,0q-0.42,0.1 -1.12,0.24q-0.7,0.14 -1.58,0.14l0,0q-1.63,0 -2.42,-0.61q-0.79,-0.6 -0.79,-2.14l0,0l0,-27.82q0.37,-0.14 1.09,-0.26q0.72,-0.11 1.61,-0.11l0,0q1.63,0 2.42,0.6q0.79,0.61 0.79,2.14l0,0l0,6.42q1.02,-0.51 2.35,-0.88q1.32,-0.37 2.95,-0.37l0,0q4.23,0 6.75,2.18q2.51,2.19 2.51,6.61l0,0l0,13.86q-0.37,0.1 -1.09,0.24q-0.73,0.14 -1.56,0.14l0,0q-1.68,0 -2.47,-0.61q-0.79,-0.6 -0.79,-2.14l0,0l0,-11.21q0,-2.33 -1.21,-3.37q-1.21,-1.05 -3.16,-1.05l0,0q-1.26,0 -2.33,0.39q-1.07,0.4 -1.95,0.96l0,0l0,16.65zm20.7,-2.37l0,-19.45q0.37,-0.09 1.09,-0.23q0.72,-0.14 1.56,-0.14l0,0q1.68,0 2.44,0.61q0.77,0.6 0.77,2.14l0,0l0,19.44q-0.37,0.1 -1.09,0.24q-0.72,0.14 -1.56,0.14l0,0q-1.67,0 -2.44,-0.61q-0.77,-0.6 -0.77,-2.14l0,0zm-0.46,-26.19l0,0q0,-1.35 0.95,-2.3q0.95,-0.96 2.44,-0.96l0,0q1.49,0 2.42,0.96q0.93,0.95 0.93,2.3l0,0q0,1.39 -0.93,2.35q-0.93,0.95 -2.42,0.95l0,0q-1.49,0 -2.44,-0.95q-0.95,-0.96 -0.95,-2.35zm29.49,6.09l0,0q1.21,0 2.02,0.56q0.82,0.56 0.82,1.86l0,0q0,0.61 -0.35,1.96q-0.35,1.34 -0.93,3.11q-0.58,1.77 -1.33,3.82q-0.74,2.04 -1.53,4.02q-0.79,1.98 -1.58,3.75q-0.79,1.77 -1.45,2.97l0,0q-0.46,0.38 -1.39,0.61q-0.93,0.23 -2.05,0.23l0,0q-1.35,0 -2.3,-0.35q-0.95,-0.35 -1.37,-1.14l0,0q-0.42,-0.79 -1.03,-2.18q-0.6,-1.4 -1.3,-3.17q-0.7,-1.76 -1.44,-3.74q-0.75,-1.98 -1.42,-3.93q-0.68,-1.96 -1.26,-3.77q-0.58,-1.82 -0.95,-3.26l0,0q0.46,-0.56 1.32,-0.95q0.87,-0.4 1.8,-0.4l0,0q1.21,0 1.97,0.56q0.77,0.56 1.19,2l0,0l2.33,7.68q0.28,0.93 0.62,1.98q0.35,1.04 0.68,2.04q0.32,1 0.63,1.91q0.3,0.91 0.49,1.51l0,0l0.18,0q1.35,-4.09 2.65,-8.44q1.31,-4.35 2.28,-8.59l0,0q0.56,-0.32 1.28,-0.48q0.72,-0.17 1.42,-0.17zm24.61,12.28l-12.93,1.87q0.65,2.37 2.42,3.44q1.77,1.07 4.37,1.07l0,0q1.96,0 3.61,-0.58q1.65,-0.58 2.67,-1.24l0,0q0.65,0.38 1.07,1.03q0.42,0.65 0.42,1.39l0,0q0,0.93 -0.63,1.65q-0.63,0.73 -1.72,1.24q-1.09,0.51 -2.58,0.79q-1.49,0.28 -3.21,0.28l0,0q-2.75,0 -5,-0.75q-2.26,-0.74 -3.86,-2.25q-1.61,-1.51 -2.52,-3.75q-0.9,-2.23 -0.9,-5.21l0,0q0,-2.88 0.88,-5.02q0.88,-2.14 2.4,-3.59q1.51,-1.44 3.51,-2.14q2,-0.69 4.23,-0.69l0,0q2.28,0 4.19,0.72q1.91,0.72 3.26,2q1.35,1.28 2.11,3.07q0.77,1.79 0.77,3.88l0,0q0,1.31 -0.67,1.96q-0.68,0.65 -1.89,0.83l0,0zm-7.77,-8.04l0,0q-2.28,0 -3.81,1.51q-1.54,1.51 -1.72,4.3l0,0l10.32,-1.53q-0.18,-1.72 -1.34,-3q-1.17,-1.28 -3.45,-1.28z"
                                id="svg_28" transform="translate(-1.6299999952316284, 31.8700008392334)" />
                        </g>
                    </g>
                </g>
            </g>
        </g>
    </g>
</svg>